<svg width="52" height="52" viewBox="0 0 52 52" fill="none" xmlns="http://www.w3.org/2000/svg">
<mask id="path-1-inside-1_12523_19" fill="white">
<path d="M52 26C52 30.2757 50.9455 34.4855 48.93 38.2563C46.9144 42.0272 44 45.2427 40.4448 47.6182C36.8897 49.9937 32.8036 51.4557 28.5484 51.8748C24.2933 52.2939 20.0005 51.6571 16.0502 50.0209C12.1 48.3846 8.61422 45.7994 5.90173 42.4942C3.18924 39.189 1.33374 35.2659 0.499583 31.0723C-0.33457 26.8788 -0.121627 22.5442 1.11955 18.4526C2.36073 14.361 4.59183 10.6386 7.61522 7.61522L10.3197 10.3197C7.7411 12.8984 5.83821 16.0732 4.77962 19.5629C3.72103 23.0526 3.53941 26.7495 4.25085 30.3262C4.9623 33.9028 6.54484 37.2489 8.85831 40.0678C11.1718 42.8868 14.1448 45.0917 17.5139 46.4872C20.8831 47.8828 24.5444 48.4259 28.1736 48.0685C31.8027 47.711 35.2877 46.4641 38.3199 44.438C41.3521 42.412 43.8378 39.6695 45.5568 36.4533C47.2759 33.2372 48.1752 29.6467 48.1752 26L52 26Z"/>
</mask>
<path d="M52 26C52 30.2757 50.9455 34.4855 48.93 38.2563C46.9144 42.0272 44 45.2427 40.4448 47.6182C36.8897 49.9937 32.8036 51.4557 28.5484 51.8748C24.2933 52.2939 20.0005 51.6571 16.0502 50.0209C12.1 48.3846 8.61422 45.7994 5.90173 42.4942C3.18924 39.189 1.33374 35.2659 0.499583 31.0723C-0.33457 26.8788 -0.121627 22.5442 1.11955 18.4526C2.36073 14.361 4.59183 10.6386 7.61522 7.61522L10.3197 10.3197C7.7411 12.8984 5.83821 16.0732 4.77962 19.5629C3.72103 23.0526 3.53941 26.7495 4.25085 30.3262C4.9623 33.9028 6.54484 37.2489 8.85831 40.0678C11.1718 42.8868 14.1448 45.0917 17.5139 46.4872C20.8831 47.8828 24.5444 48.4259 28.1736 48.0685C31.8027 47.711 35.2877 46.4641 38.3199 44.438C41.3521 42.412 43.8378 39.6695 45.5568 36.4533C47.2759 33.2372 48.1752 29.6467 48.1752 26L52 26Z" fill="black" stroke="black" stroke-width="4" mask="url(#path-1-inside-1_12523_19)"/>
<mask id="path-2-inside-2_12523_19" fill="white">
<path d="M0 26C0 21.7243 1.05448 17.5145 3.07005 13.7437C5.08561 9.97283 8.00004 6.75726 11.5552 4.38179C15.1103 2.00632 19.1964 0.544292 23.4516 0.125197C27.7067 -0.293897 31.9995 0.342883 35.9498 1.97913C39.9 3.61538 43.3858 6.20059 46.0983 9.50577C48.8108 12.811 50.6663 16.7341 51.5004 20.9277C52.3346 25.1212 52.1216 29.4558 50.8804 33.5474C49.6393 37.639 47.4082 41.3614 44.3848 44.3848L41.6803 41.6803C44.2589 39.1016 46.1618 35.9268 47.2204 32.4371C48.279 28.9474 48.4606 25.2505 47.7491 21.6738C47.0377 18.0972 45.4552 14.7511 43.1417 11.9322C40.8282 9.11321 37.8552 6.9083 34.4861 5.51275C31.1169 4.1172 27.4556 3.5741 23.8264 3.93154C20.1973 4.28899 16.7123 5.53594 13.6801 7.56196C10.6479 9.58798 8.16225 12.3305 6.44319 15.5467C4.72413 18.7628 3.82476 22.3533 3.82476 26L0 26Z"/>
</mask>
<path d="M0 26C0 21.7243 1.05448 17.5145 3.07005 13.7437C5.08561 9.97283 8.00004 6.75726 11.5552 4.38179C15.1103 2.00632 19.1964 0.544292 23.4516 0.125197C27.7067 -0.293897 31.9995 0.342883 35.9498 1.97913C39.9 3.61538 43.3858 6.20059 46.0983 9.50577C48.8108 12.811 50.6663 16.7341 51.5004 20.9277C52.3346 25.1212 52.1216 29.4558 50.8804 33.5474C49.6393 37.639 47.4082 41.3614 44.3848 44.3848L41.6803 41.6803C44.2589 39.1016 46.1618 35.9268 47.2204 32.4371C48.279 28.9474 48.4606 25.2505 47.7491 21.6738C47.0377 18.0972 45.4552 14.7511 43.1417 11.9322C40.8282 9.11321 37.8552 6.9083 34.4861 5.51275C31.1169 4.1172 27.4556 3.5741 23.8264 3.93154C20.1973 4.28899 16.7123 5.53594 13.6801 7.56196C10.6479 9.58798 8.16225 12.3305 6.44319 15.5467C4.72413 18.7628 3.82476 22.3533 3.82476 26L0 26Z" fill="black" stroke="black" stroke-width="4" mask="url(#path-2-inside-2_12523_19)"/>
</svg>
